<mxfile host="app.diagrams.net" modified="2022-04-12T09:52:18.517Z" agent="5.0 (Windows NT 10.0; Win64; x64) AppleWebKit/537.36 (KHTML, like Gecko) Chrome/100.0.4896.88 Safari/537.36" etag="KZqLdLUa5cJGIVJlaG5E" version="17.4.0" type="github">
  <diagram id="C5RBs43oDa-KdzZeNtuy" name="Page-1">
    <mxGraphModel dx="2500" dy="896" grid="1" gridSize="10" guides="1" tooltips="1" connect="1" arrows="1" fold="1" page="1" pageScale="1" pageWidth="827" pageHeight="1169" math="0" shadow="0">
      <root>
        <mxCell id="WIyWlLk6GJQsqaUBKTNV-0" />
        <mxCell id="WIyWlLk6GJQsqaUBKTNV-1" parent="WIyWlLk6GJQsqaUBKTNV-0" />
        <mxCell id="sVOYZzYlMdBRzzVB63qX-0" value="Actor" style="shape=umlActor;verticalLabelPosition=bottom;verticalAlign=top;html=1;outlineConnect=0;" vertex="1" parent="WIyWlLk6GJQsqaUBKTNV-1">
          <mxGeometry x="-260" y="205" width="30" height="60" as="geometry" />
        </mxCell>
        <mxCell id="sVOYZzYlMdBRzzVB63qX-6" value="" style="endArrow=classic;html=1;rounded=0;" edge="1" parent="WIyWlLk6GJQsqaUBKTNV-1">
          <mxGeometry width="50" height="50" relative="1" as="geometry">
            <mxPoint x="-210" y="238" as="sourcePoint" />
            <mxPoint x="-140" y="238" as="targetPoint" />
          </mxGeometry>
        </mxCell>
        <mxCell id="sVOYZzYlMdBRzzVB63qX-7" value="" style="rounded=1;whiteSpace=wrap;html=1;" vertex="1" parent="WIyWlLk6GJQsqaUBKTNV-1">
          <mxGeometry x="-116" y="187" width="90" height="120" as="geometry" />
        </mxCell>
        <mxCell id="sVOYZzYlMdBRzzVB63qX-8" value="" style="whiteSpace=wrap;html=1;aspect=fixed;" vertex="1" parent="WIyWlLk6GJQsqaUBKTNV-1">
          <mxGeometry x="-106" y="197" width="70" height="70" as="geometry" />
        </mxCell>
        <mxCell id="sVOYZzYlMdBRzzVB63qX-9" value="" style="ellipse;whiteSpace=wrap;html=1;aspect=fixed;" vertex="1" parent="WIyWlLk6GJQsqaUBKTNV-1">
          <mxGeometry x="-81" y="277" width="20" height="20" as="geometry" />
        </mxCell>
        <mxCell id="sVOYZzYlMdBRzzVB63qX-10" value="" style="endArrow=classic;html=1;rounded=0;" edge="1" parent="WIyWlLk6GJQsqaUBKTNV-1">
          <mxGeometry width="50" height="50" relative="1" as="geometry">
            <mxPoint y="237" as="sourcePoint" />
            <mxPoint x="80" y="237" as="targetPoint" />
          </mxGeometry>
        </mxCell>
        <mxCell id="sVOYZzYlMdBRzzVB63qX-11" value="&lt;font style=&quot;font-size: 24px&quot;&gt;APP&lt;/font&gt;" style="ellipse;whiteSpace=wrap;html=1;" vertex="1" parent="WIyWlLk6GJQsqaUBKTNV-1">
          <mxGeometry x="110" y="202" width="120" height="80" as="geometry" />
        </mxCell>
        <mxCell id="sVOYZzYlMdBRzzVB63qX-12" value="" style="endArrow=classic;html=1;rounded=0;fontSize=20;" edge="1" parent="WIyWlLk6GJQsqaUBKTNV-1">
          <mxGeometry width="50" height="50" relative="1" as="geometry">
            <mxPoint x="170" y="330" as="sourcePoint" />
            <mxPoint x="170" y="388" as="targetPoint" />
          </mxGeometry>
        </mxCell>
        <mxCell id="sVOYZzYlMdBRzzVB63qX-13" value="login(main)" style="rounded=0;whiteSpace=wrap;html=1;fontSize=20;" vertex="1" parent="WIyWlLk6GJQsqaUBKTNV-1">
          <mxGeometry x="110" y="426" width="120" height="60" as="geometry" />
        </mxCell>
        <mxCell id="sVOYZzYlMdBRzzVB63qX-14" value="" style="endArrow=classic;html=1;rounded=0;fontSize=24;" edge="1" parent="WIyWlLk6GJQsqaUBKTNV-1">
          <mxGeometry width="50" height="50" relative="1" as="geometry">
            <mxPoint x="97" y="449" as="sourcePoint" />
            <mxPoint x="50" y="390" as="targetPoint" />
          </mxGeometry>
        </mxCell>
        <mxCell id="sVOYZzYlMdBRzzVB63qX-16" value="register" style="rounded=0;whiteSpace=wrap;html=1;fontSize=20;" vertex="1" parent="WIyWlLk6GJQsqaUBKTNV-1">
          <mxGeometry x="-140" y="429" width="120" height="60" as="geometry" />
        </mxCell>
        <mxCell id="sVOYZzYlMdBRzzVB63qX-17" value="" style="endArrow=classic;html=1;rounded=0;fontSize=24;" edge="1" parent="WIyWlLk6GJQsqaUBKTNV-1">
          <mxGeometry width="50" height="50" relative="1" as="geometry">
            <mxPoint x="97" y="458" as="sourcePoint" />
            <mxPoint x="10" y="458" as="targetPoint" />
          </mxGeometry>
        </mxCell>
        <mxCell id="sVOYZzYlMdBRzzVB63qX-19" value="" style="endArrow=classic;html=1;rounded=0;fontSize=20;" edge="1" parent="WIyWlLk6GJQsqaUBKTNV-1">
          <mxGeometry width="50" height="50" relative="1" as="geometry">
            <mxPoint x="-81" y="580" as="sourcePoint" />
            <mxPoint x="10" y="580" as="targetPoint" />
          </mxGeometry>
        </mxCell>
        <mxCell id="sVOYZzYlMdBRzzVB63qX-20" value="" style="endArrow=none;html=1;rounded=0;fontSize=20;" edge="1" parent="WIyWlLk6GJQsqaUBKTNV-1">
          <mxGeometry width="50" height="50" relative="1" as="geometry">
            <mxPoint x="-81" y="510" as="sourcePoint" />
            <mxPoint x="-81" y="580" as="targetPoint" />
          </mxGeometry>
        </mxCell>
        <mxCell id="sVOYZzYlMdBRzzVB63qX-21" value="&lt;font style=&quot;font-size: 24px&quot;&gt;DB&lt;/font&gt;" style="shape=datastore;whiteSpace=wrap;html=1;fontSize=20;" vertex="1" parent="WIyWlLk6GJQsqaUBKTNV-1">
          <mxGeometry x="40" y="533" width="110" height="100" as="geometry" />
        </mxCell>
        <mxCell id="sVOYZzYlMdBRzzVB63qX-22" value="" style="endArrow=classic;html=1;rounded=0;fontSize=24;" edge="1" parent="WIyWlLk6GJQsqaUBKTNV-1">
          <mxGeometry width="50" height="50" relative="1" as="geometry">
            <mxPoint x="97" y="647" as="sourcePoint" />
            <mxPoint x="97" y="707" as="targetPoint" />
          </mxGeometry>
        </mxCell>
        <mxCell id="sVOYZzYlMdBRzzVB63qX-24" value="member_table" style="swimlane;fontStyle=0;childLayout=stackLayout;horizontal=1;startSize=30;horizontalStack=0;resizeParent=1;resizeParentMax=0;resizeLast=0;collapsible=1;marginBottom=0;fontSize=20;" vertex="1" parent="WIyWlLk6GJQsqaUBKTNV-1">
          <mxGeometry x="30" y="730" width="140" height="120" as="geometry" />
        </mxCell>
        <mxCell id="sVOYZzYlMdBRzzVB63qX-25" value="member_id" style="text;strokeColor=none;fillColor=none;align=left;verticalAlign=middle;spacingLeft=4;spacingRight=4;overflow=hidden;points=[[0,0.5],[1,0.5]];portConstraint=eastwest;rotatable=0;fontSize=14;" vertex="1" parent="sVOYZzYlMdBRzzVB63qX-24">
          <mxGeometry y="30" width="140" height="30" as="geometry" />
        </mxCell>
        <mxCell id="sVOYZzYlMdBRzzVB63qX-26" value="member_pw" style="text;strokeColor=none;fillColor=none;align=left;verticalAlign=middle;spacingLeft=4;spacingRight=4;overflow=hidden;points=[[0,0.5],[1,0.5]];portConstraint=eastwest;rotatable=0;fontSize=14;" vertex="1" parent="sVOYZzYlMdBRzzVB63qX-24">
          <mxGeometry y="60" width="140" height="30" as="geometry" />
        </mxCell>
        <mxCell id="sVOYZzYlMdBRzzVB63qX-27" value="member_name" style="text;strokeColor=none;fillColor=none;align=left;verticalAlign=middle;spacingLeft=4;spacingRight=4;overflow=hidden;points=[[0,0.5],[1,0.5]];portConstraint=eastwest;rotatable=0;fontSize=14;" vertex="1" parent="sVOYZzYlMdBRzzVB63qX-24">
          <mxGeometry y="90" width="140" height="30" as="geometry" />
        </mxCell>
        <mxCell id="sVOYZzYlMdBRzzVB63qX-28" value="&lt;font face=&quot;helvetica&quot; style=&quot;font-size: 16px&quot;&gt;Input new user&lt;/font&gt;" style="text;whiteSpace=wrap;html=1;fontSize=18;" vertex="1" parent="WIyWlLk6GJQsqaUBKTNV-1">
          <mxGeometry x="-197" y="533" width="108" height="37" as="geometry" />
        </mxCell>
        <mxCell id="sVOYZzYlMdBRzzVB63qX-29" value="" style="shape=table;html=1;whiteSpace=wrap;startSize=0;container=1;collapsible=0;childLayout=tableLayout;fontSize=16;" vertex="1" parent="WIyWlLk6GJQsqaUBKTNV-1">
          <mxGeometry x="370" y="370" width="280" height="210" as="geometry" />
        </mxCell>
        <mxCell id="sVOYZzYlMdBRzzVB63qX-30" value="" style="shape=tableRow;horizontal=0;startSize=0;swimlaneHead=0;swimlaneBody=0;top=0;left=0;bottom=0;right=0;collapsible=0;dropTarget=0;fillColor=none;points=[[0,0.5],[1,0.5]];portConstraint=eastwest;fontSize=16;" vertex="1" parent="sVOYZzYlMdBRzzVB63qX-29">
          <mxGeometry width="280" height="60" as="geometry" />
        </mxCell>
        <mxCell id="sVOYZzYlMdBRzzVB63qX-31" value="&lt;font style=&quot;font-size: 24px&quot;&gt;main_service&lt;/font&gt;" style="shape=partialRectangle;html=1;whiteSpace=wrap;connectable=0;fillColor=none;top=0;left=0;bottom=0;right=0;overflow=hidden;fontSize=16;rowspan=1;colspan=3;" vertex="1" parent="sVOYZzYlMdBRzzVB63qX-30">
          <mxGeometry width="280" height="60" as="geometry">
            <mxRectangle width="93" height="60" as="alternateBounds" />
          </mxGeometry>
        </mxCell>
        <mxCell id="sVOYZzYlMdBRzzVB63qX-32" value="" style="shape=partialRectangle;html=1;whiteSpace=wrap;connectable=0;fillColor=none;top=0;left=0;bottom=0;right=0;overflow=hidden;fontSize=16;" vertex="1" visible="0" parent="sVOYZzYlMdBRzzVB63qX-30">
          <mxGeometry x="93" width="94" height="60" as="geometry">
            <mxRectangle width="94" height="60" as="alternateBounds" />
          </mxGeometry>
        </mxCell>
        <mxCell id="sVOYZzYlMdBRzzVB63qX-33" value="" style="shape=partialRectangle;html=1;whiteSpace=wrap;connectable=0;fillColor=none;top=0;left=0;bottom=0;right=0;overflow=hidden;fontSize=16;" vertex="1" visible="0" parent="sVOYZzYlMdBRzzVB63qX-30">
          <mxGeometry x="187" width="93" height="60" as="geometry">
            <mxRectangle width="93" height="60" as="alternateBounds" />
          </mxGeometry>
        </mxCell>
        <mxCell id="sVOYZzYlMdBRzzVB63qX-34" value="" style="shape=tableRow;horizontal=0;startSize=0;swimlaneHead=0;swimlaneBody=0;top=0;left=0;bottom=0;right=0;collapsible=0;dropTarget=0;fillColor=none;points=[[0,0.5],[1,0.5]];portConstraint=eastwest;fontSize=16;" vertex="1" parent="sVOYZzYlMdBRzzVB63qX-29">
          <mxGeometry y="60" width="280" height="150" as="geometry" />
        </mxCell>
        <mxCell id="sVOYZzYlMdBRzzVB63qX-35" value="" style="shape=partialRectangle;html=1;whiteSpace=wrap;connectable=0;fillColor=none;top=0;left=0;bottom=0;right=0;overflow=hidden;fontSize=16;" vertex="1" parent="sVOYZzYlMdBRzzVB63qX-34">
          <mxGeometry width="93" height="150" as="geometry">
            <mxRectangle width="93" height="150" as="alternateBounds" />
          </mxGeometry>
        </mxCell>
        <mxCell id="sVOYZzYlMdBRzzVB63qX-36" value="" style="shape=partialRectangle;html=1;whiteSpace=wrap;connectable=0;fillColor=none;top=0;left=0;bottom=0;right=0;overflow=hidden;fontSize=16;" vertex="1" parent="sVOYZzYlMdBRzzVB63qX-34">
          <mxGeometry x="93" width="94" height="150" as="geometry">
            <mxRectangle width="94" height="150" as="alternateBounds" />
          </mxGeometry>
        </mxCell>
        <mxCell id="sVOYZzYlMdBRzzVB63qX-37" value="" style="shape=partialRectangle;html=1;whiteSpace=wrap;connectable=0;fillColor=none;top=0;left=0;bottom=0;right=0;overflow=hidden;fontSize=16;" vertex="1" parent="sVOYZzYlMdBRzzVB63qX-34">
          <mxGeometry x="187" width="93" height="150" as="geometry">
            <mxRectangle width="93" height="150" as="alternateBounds" />
          </mxGeometry>
        </mxCell>
        <mxCell id="sVOYZzYlMdBRzzVB63qX-48" value="Music" style="icon;html=1;image=data:image/png,iVBORw0KGgoAAAANSUhEUgAAAF0AAABdCAMAAADwr5rxAAAAYFBMVEX///8AAAD39/f6+vokJCQoKCjW1taAgIClpaXCwsK1tbWbm5vk5ORgYGAtLS3IyMitra3v7+/c3NyKiopJSUk/Pz+Tk5NZWVlTU1MVFRUbGxt0dHQ0NDRnZ2dtbW0LCwtfXdPKAAACKUlEQVRogbXZaZOCMAwG4AaQQwuooOu5+///5a5Hl8OWQt8kH5nxmTGkTWiVWhDFgdp6yQ+WxJoeUQjpT5wuMnj00ikS1beiehJL6rQR1Wkvqq8EctPpdBXVKRfV+VfsQGev+qHOXZcjne6slTPWKUkldaJGVKcb27K16Xwv167TQUvqRGtRnWXbcevU7iR1qmB+Sqczyk/qdANHhWmdTqI62FF8OkHLyquXojo0ifj1u6hOQNHP0IFWPkMH3usMHZjt5+jhfdzoupFIvNGVip1++JBg9MeQpL/sesaiK7W16t9MukovkrraJXKZeTyoPvQjn652P2Mdr8jeYJ2O9fAzCouuNiM9fJO06eowwIHPcKs+zE14Qdp1VfZ1YCyw6/u+DjRWu67aDl+F4y69t+GEryWnrjsdGZcceleULYA79aPRobMDl24SXyG4S4/MVoZ9nDl00wNvEO7QC5N18NDArmfvp+iRgV1/V0wC4g5d4wtpQn+dbAf0pF2db5rmmBd6SldRsXwZpU2v7SRZ7daXR93bV1+x2sZMuj6N7ecf4NHXNrsLTB9PEax67sEh/WO84tRjy2DLp3vzAukrSd2fdUT3VSOmZ34c0O+i+nWGHox3k4+IXvhxhi+AiUCGIm/iz8iZqfbp2F2B571io6hS1q73H+jcEh0mcIYbJsfJDjFd2zo2+RK/f3iGLj/tivHSU2fDPlIyX6jG+zw7/XXZc/u9qQNz8gtHXBPV3NKTFgAAAABJRU5ErkJggg==;fontSize=24;" vertex="1" parent="WIyWlLk6GJQsqaUBKTNV-1">
          <mxGeometry x="387" y="460" width="60" height="60" as="geometry" />
        </mxCell>
        <mxCell id="sVOYZzYlMdBRzzVB63qX-49" value="Alarm" style="icon;html=1;image=data:image/png,iVBORw0KGgoAAAANSUhEUgAAAOEAAADhCAMAAAAJbSJIAAAAe1BMVEX///8AAACenp5LS0v8/Pz19fXl5eX5+flhYWHu7u7f399nZ2fy8vLJycl4eHi2traAgIAlJSXY2Ni/v79sbGyurq5CQkKMjIycnJyoqKhbW1s6OjqWlpZTU1MvLy8PDw82NjYXFxePj4/S0tIjIyN7e3tISEjFxcUbGxtotE/0AAAO0UlEQVR4nO1d53ryPAwFGvYIhFFGSRjtW+7/Cj9miSV5yFLafs/T8xdiW4mtcSTbtVoY2q3parxd5KeifsoX69ky7bWTwGflSNq9dDlbn7uvF+fut+PVtNVWbL97fN3WCexG065iN9bup6Md1f329ajSfXO+Laj2H900ehq9WNFrkC/3jmI7bwo7GM4c7T+EnKrIQmHqEu+O2TC+/SSd+Du4YlnFbO0uA3ufpHEaIVnlgT1cZdRc+Be0Q+W7IF9FyDgM/X53vM9VBZy/87qffDI76HZ4HVyQZ2ryZZzpc8eatVJW/A4uaCgJ2IjrfhXcQbMf18NZrbYU5GsFKFAa/UDTkTGXgAG55ZgKen8PWihzQQ91+UyNnKEPBOg7jpImMRYJOJZ2v6y8h3q9IxAwQoVDeN5wgJPmxzpawLVG9zNXDwpf0NuHAyrv1/kVxWvwgVGUgCOt7q1rUahFS/gXE1Jl/9T6t2jUTKf1yZjrIj7x+cH0hm0g7WJTYugf2BykAXHvsFEYxzvl3US7al8oxpkGdZNkCgqvj9uNdLafWA/1mKlkKLYbyA3vytrbv2r43GW0XveyIcFgSuRMLMR8EIXmfCEZFPA7hoKmNvG604dPidYxhpVExNR37KqT7yojSZUGYVLWC9G2flEdk/jANHqulpRN7CcsdNknG+YuStqB/PkR07gWxqH6pZ1N0+W4v11sdnme7zaLbX+8TKdZKAPZjDSQ6VcLUa5SCCeTDIarD9cEyT9Ww0GAHY3jbiaPx2MUaZG6BnR98b3VKGz256NVzzsd0pip+iD8I8Ky/sDzztM+b23n/dQzJwYRbuU9UG3yn3Rr0NYyTsXvlm4hI1i429RgmwonLdlqSKz0puESkk/k3pQ9dxE7+MLkUx6h9D8dmofLNW4vD3V5S3h/tHbfftOJXydvdjNy3LOaKi7+95H1SMfa+eDAasiNg1WTtXkxwuV7vHIeeLN13GU1E4BXayrpjdVMjbcMbUaw9cEcfwg+bEqH44KdF2Kb8XdL3iNRolkRxhadw+HM2rVW8H93lnkT6dUGwTJpuuEGtxVuRte0julFZ/uCsKW5u3YwjzMNZqDW5IxJAhVMsR0f3hrz6TBrZcPpvPF2GDvLdEp4pTsOFXEVmqqgsy2f/lHuO8vUQjImWbrs7L0tFDSLECjiOPCPZK7Fq2H87vQZPb+TTmucsIBhWwtKFpCZlpabXuiveqEEatJbub29BfmigjI5i1qIViIIZI+nv5h7wiuEgZs7JKOZECc4rwVkK7bUa3fY+MlbHD3ccvm1H9SECNDjp5pfV2yJtlv2EKkjqKSrDe1e54Z4bYlfxKLm/cuGiAbt3npfWhiV2aceEdU0/cFobe/7B7GgrEtwplFs2rMqSWIxDnzD39d8mpoYs40UmGllZ1o2GQl+tucZf17zfGbCMbRk+xeS9QcxtChWIkPvcYs3tRfn7wfcosVP06rae8DCV7zif7oj7xe3Z0AYQvr/ff0iYUsBKOFdOc3izMntvAe2VmhO0CeGpCUj3rrLpjec0xhrfnKKhtWupuvOE2svZX5Bl3Sa8UR1RcSpi4jCS4tUMlbuxvWst8DuBpKTwc86JuLRwXjjCjwylrSzi65RhCom8gPgYmC7K9S05w4LZOopQ78O9rDjJKwNqJmKTP/A5nxecoi2GARpDypFxShgi5SQHmDQ4B4DtKgapJUpyoqwTvoSkuoNuU8Wq5daRk7M0YQIJMOL40USUopkBwMeyzy9vgnSb0PanJgrQRpfQ0JqnqH1Qc7FzfUnSiOjoJd4nmnmJRJSywy9XypWvFkyyjuHNpyYylw/RiQhJSJcilTh2j0ywtMUOtwJdvV5U1QsITGJFnApYhd8c/8FGfIC0tuYNmQpGQ0JCXcD1nO3kbJ5jBIlZ2Cg+Yka55gJJQkJowGpYhSaf31loGs24EHM5cRUqoslJNQ5/AdYb0+PGaxR6BOhlxe1Z0QuIfY+4VQCfmVJXxrr7B94DOnaPZftvUJBwsEeDgWySAaDX16nxkeEZgDZmdBowoSChDjSgHbbMCqGySt1vwMPITUdGNpBaEiIA1RotHbWLp58OlBQSNHG7mpSkRCnyoBhe6r9CXjy6/NCRQrzE3GLsKYlIVqKH+APX+oU+VwPVQw+O1Iz0aSTjoTYfQPK5rGosEFr32ZwDlwhaINit6WpSYgCQSDKnbPYEVUHN8IK0ErI446do3oSokwF8MBv7guZIGoQf4fGnu+Oms0rSIgcVGD2W47mR0hRwoBkET8uPQlrMNABod7a4VV2oB6BnzDO1t+gJyG0++AjDh1eZRO4CNAWxm0NvUNPQqT+gFbZhu9RgvyGKD+oKCHUf4GsO0ZyMhuKtxQXKEoILcYpdl8g5LhlKV5NCeFHjN2bBMIxsqomHJoSwiRf5CEH8EUJqxBUJYTOZNz0AnpG+Al1JYQfMU7XANJDYgsv0JUQ2ERELYUATNJcOCRlCWGVTMw0BZM0MrJ/QllCEO3HTFNQRScutlCWELjMMKIPAJikEp/7BmUJof/Nn6aAgJLvh9WWEBDc7DwKNPfyDffaEoISC7bRB+eAyFzSK7QlBM4pedaHC6AIR2HTtrqEYJpyC1tB6lyhrlJdQqALuS2aU2CjcGyJuoSJ6XQxF1I7lzxNQl1C8BVy3vminnxbDPQltOfSAgCyvhrlzfoSgoXIO4LEHE6ES+RrUqWkeCJo0mSzpKHhFRVIaAaJPCYw1x9OBRKaTfLiO3OG830+73BUJAS+M+dR4POpHBBcgYTA8eL4bYAj0BhNFRKCqcbhWczPX6iMpgoJzSIozmIyndr480jLqEJCM6vPCQ9MjiaixItAFRKauTEOVzOKftKOKiQ0vwTHIK4rGE0VEpptclaTyfIIUtvW0ehIaCa8OWyZWbWuYvArkdDU+TvGk6bTpnNuYBUSmiEQx20znXZpxuIGU0JiY2METM+EEwKZRJvOTTKA+VE5D9RMshGbCa0w09s6uyeBhLAeLQomFXFiPGnOUp1vCIuwNdx58xtyZqmpaXTWIdwGqeELmuuQo2lMe6h0BissZVKgt0xdyrGHZuGzjj1EpR17eZOmPaTO77DBTMvo+DS4vlfu75o+DSc5Y3KtWlvtUTWuctaVw1ubu4B0YosarqgW1cldYMYWnNtRzD1SOv7HGQn8iFItHT9O03ZJrlUxAYtfX4TtmfqCE+Obak9B6T0ANwIK1fTeaIxjfoBOkA2jDFRpL2vObIvlewkedQOeqyHigCQfwnxU8eB1VPwvSWsBH4L1rHmKm5bJvwBuR5UkX03FBffcccahkQJ+AFkMwckvpmPCuyzMNKXiqr0y4F64qLLCG8wQiOeYVJAD/gI8xzC6kkWUAwZbb1TveEAWI/YKU6BoeBuWwAZ8sQNpAO7Nir1tz2Tm0fZ81tOCtUIAHX4QaW9NB4n7FQCronsTEDz8IM7xBcuQu5yBu6AU5t8Bt6rE8SRAKXMnQtuk23QXIiI0OEznF8yFNGHrK0A5KF/ZDHfAR9AIYNsZn7oTl+A6gU5Y4+9NFRcxA4UnjVUh4AY7PgUODnyM4HwW4hZcQMfEcSlw8AViKu0B41D12ZYcspN4Pib8AS9J1+gTt2gxPUPAh0QZbDBNdbIXT6BjfVhPg5qmuO0gYN+NZpB4hYgCnwme/YLy/kMECQWus/8QbipR9mtEhAYwNrGMLgzktC/iRAfDBC91OL2i839A3al/RJgWDtYX4BPGsyzQZqkfhxxJgcMAM95WQ15MpbqgDERohMXpMIclCAug96hSLFxGFAUO3XbJ6oFKWdv/xoRGiDaDh6yLzBgkjdQvHoWnpwRsfID6SeaKoDSD9tXGbUhoeClwFJUIjZh6YhoCUuBezQ91g3REaKFoO+BcChwduyf2Q6Brxd6N6gMaspPQaMIz9GPp5FKTcAB6Wf07oDZzxgno+EuFF46OKtSO9sFCmLusPjr3WnzUwwXomGFtu19O5bnviUYUHTrWOwqo2ZPyUnwSGp57opvQtGjpPXROssp+xBLuFPjOR9Wg60PkauaGBJ2xrNXyA1cKvOGbcfhEapU5egE+C1qt1O2Gs/8787Le+Ox4pcLXC/DFA8oO6ptfe+FbpjS5sSa+5kM18R0AfH1IrqrwiLtq1GNFJ4jbWJQHQFwx850iEm9Ys4zpCuIOEMWF7gFxw406QQ1PyrhCPR62gLjKjnkKRhCoazCUjYYF1BUj2gT8FdQddNqmnwJ1Y606YXQFecteXztchGiSN719o4T192pVakbfGvedElagtkuw3an9vRJWN1PpGfoDEtbf1empK472ew2/W8J6faRvntquS6m/X0J962+7sPbnJKy/aCrVzNeZYl9PeDo9m3+t/GLXdy39T0lYr39oyNh1XGr+4xKeVY6UZG8F3Xr/gxKeZZSsxyxIvh+WsF5frOIma3dluav610l4xnbKJfqSqf+u+98k4RmjNPxLdtPA2fmrJDxj8fHpVzytz4/gyfnrJLxgM1pZxexNVyPP7fX/Awlv2HfeGqv5dJi1Bq1sOJ2vGm+dvaC93yehNv4k/JPwT8Kfx5+EfxLS4PiNVYO7/yQMVmrvB6BdK3EDvlPZhkOcK7bBF2vboHPgKISNf0bY12rNdDbx/7GEySxtwrNKHKiGZycucKdxq3xLssYsLGhYzBrZLZxEVWs2CA5icCG0++cLTrrHxmjn+Otu1Dh2n8Fy8DSpRkAq0U0CZS+T3nR+mK1fNvmpqBenfPOynh3m0x7iAagsLAX9FPcNRDadgsRWBdrcqkpdcPUXCcmWYXRFNolCrdoLwp1LuOMkSdKgwnYSFVZIhNg52a7vkI+ovZ21DFzChyAtkg4wGJXW8fj9GmnmAm0OQKjGn/mCz/2Wm2KfY1GN0/1E4l6KGmrcbZQ0LmZyowk3KJehc7aES9usq67fucCaviy0ssCZ1fB+Rw3WGSk9gI5etUKb1qiF8vkjdiRLLONW190fYpVWLCtfgiV0l+YIZvrhzNB09LdL9V3IPgzmr/3FqT55mS2P1bzc5LicvUzqp0X/dc4/v+aB/wCq57pE7h0BoQAAAABJRU5ErkJggg==;fontSize=24;" vertex="1" parent="WIyWlLk6GJQsqaUBKTNV-1">
          <mxGeometry x="479" y="460" width="60" height="60" as="geometry" />
        </mxCell>
        <mxCell id="sVOYZzYlMdBRzzVB63qX-50" value="Navi" style="icon;html=1;image=data:image/png,iVBORw0KGgoAAAANSUhEUgAAAOEAAADhCAMAAAAJbSJIAAAA6lBMVEX////64AEZdtL64ACtra3/4wAYddPw1wDz2ADq1Bzx5p7489Ht1BgUdNUAcNnBxEX48bkhe8ejtl0lfr3w3AALc9i1vlFRjqbCxT8Acdn03wD9/PD+/vr699r8+unr0QCFp3n7+OGZmZnz6anv4oHq1jv2779unJBAhrPTzi1NjKrLyjOTrmy4wUmquldIiq0Ud83z663s3GLr2E7t1i/r2lTt33Pw5Iv38snp2Fzx5pbm2BF6oYZck6CIqXbc0iOetGRZk5s2g7hjl5OouVt8ooQ3hLYofcJ2oINZkaOYsGoAbd7Fxzju4G/UxJrzAAAKgElEQVR4nO2da1fiOhSGaWPaMtAqQhQQqIwg4g2UejmiouJldPD//52TFHW4tJCkoSWsvn6YruWs4sO7k+y0yU7i99pq63diLbHaWosJpVdMKL9iQvkVE8qvmFB+xYTyKyaUXzGh/IoJ5VdMKL9iQvkVE8qvmFB+xYTyKyaUXzGh/IoJ5ZcQwtJOpVq+3t84O9v7JUZ7e2cb+9epcmVnpxQ1YSn1q3beqTtJ3ZUhSO7N0sl6/eLz6qwaHWHl7DNt64aigIVJUQzbdi43KhEQlso1xzAInEJ+FKAs5oJ8gGHXrzid5Ce8PtcN8hWHIvxBevq8HCZhpaYrYKHWTV4AYKSvdkIj3HfC8++fkYre2Q+HcOfSBmFZN3Fh11ht5CGsdIzQ/fu2Eej/MfaqHISptBIVIGE07NSCCVNJ0sWEHJxjFw4TIjNhKhl+FzPhomKztEVWwqoT8iDhdWH8x4DISFi6iLIN/rioXy6MsGYsOkejugD23oIIy/YSOOgqSZ2lMhHudKK1buTCOF8I4a/IRvopAZs2f2MhrOhLA4h9rFNO/lkIbwwQOLoUALFE3EenNJGBsJIMbCHGA7luN6cQyKAmXggn3DOC9hAQdp9v7w5b743NHmYM5iFIXwsmLHUC+5f7aGmWKzN73wvoIzBqgglT6UAJN4DF03cTaaorzUQHD10YKCgUh6qvoSfcC9KTYgObt6r1xecKocd8IBuBTfXchp7wMsCkCcLe/VthlI/4iNq3Awj5GzZd6kZNWHICGAhOD5GpTslE2c0ct43AoMq/qQmrvCkp5jt5tArTfG6oWgen3IygQzOJoibc0Dk7GBKgSPMGJIyZxhHk63KAQ5N+UxNe8eSkZAR8yFoeAToSqlZml2/kADrN4wxqwkuDw0NYPHlX0Sw+l9E8eO5Ctju7Huo0Yz414TmPgUeN9mQP6iWtoG7nFWYbgfFLIOHX1JDBQ9wAjzOFmQE6yti+bQLI6CFVZ0pLWKmzGpjbOjAp+dxQRU8fXcbmaHyKJHSYPITF/Ls2owf1EkLDkYM+TKgm+rSEVYf+2yU96O6bxcaHpVntRpPJRpoJlHhCPAR2j+eMEP6MmT8sI0dHIGGZOkohyG9rc0cIP+E5x3ORduoolpBugo/5mv22xctHhNDdSZHSxrpYQpoOBnbvs145Nos0lLltUj3LEUqYovAQjxDPLYs7QP/JtJ6OqUYORyRhep6HeIRYf5yfolEymtvfzXGWh0mxhHP8g90X6hRmvrSC+TXnmCXBhDMTKDxCPInjcxlRZrc5O48L0UMA84+moAD9JxO1tgAM0UP/D4LKg8mewlCoYL3kZiGGFqXwNCPcwKFM9f5nXUt0UQpgM+vzGCa4kLo1o7sJyUOYayzIQaLCYc93+h+Wh3BdFdqJTggd+5sYVju85ctDTbq+qdAq+j01DslD2G1xtcL2E9UzHNVsN32703A8hIM3niBFrd7JNqJowBraitrD9QwPYeE9R/K8+TNlrbDp2xCXm3A7ByHs9dvzbNSs0Aj9opSfkIw0p69z0lmXUMooJYTDOfPbzDmz5B66zz0G/VnTSsk9JCLvv1/9Hw0QQp+PlsRDxX0BcJ/xe368Ah66NoL1vs9b1OVvh5qJPGT+HfHQfUhQfG559jhL7yFCmayXMv3xuS1ZrfHHK48L0UMeQs18P+nmvDW5Xpy8b+ybU81xyaMU9XvQT9M3xAnAx+vUopSljlL02mN6I0gSgFt1HHG5PUS7jK91SR73Mj40LrWHmnbKvsYCHrXNSUK//xu5h5r7GInNQ0KoTRIur4eYkNFBABWvKF0dDwHsNbx6mlXxEHelW4eT08WlHvHHCMHUeDjNd9RAU8mpNFEKc4P8mI4mAw8WN189JhiyRCkAu+O/G5tbuAYOHgteswtZPIS5bUsblTU+t4Ddj6z3DFEWDzHh+CAw6iF5knHo9/5RlhHfm/A74e69ZHyff8vvITZwy3MV+CihzB7iiW9DnfXiQ3IPyXO2g9kvaGQZ8T0J8RCRf5z3dkbqKIW5zVnL+EcIpYzS9yLIb1OsIpbWQ3SQn7kPQ34PVTVDt4hR2hFfpV3eILGHlJK2HbIRxh5GRahKRsgepSp6AXClo1Q12w9fy+5X1UOM2DhybVxVDzFi4Y0suw9I6PPRy+AhFjIP1otwdT1UhztEerC4ou1wKLOQ/Rgc8BIWIvcwT7EWA6nZNh8gJvR/RRcSYe+VZn0p9zJiUx1E3NOA3GOgvWrzhLLdiNeXArhJtdaXV9Zt5Ou8YY+3E6ERestHvlYfwK02dyubJ826n1GnMbQ9M8UXynX37EJ3P60wOg/Jcv3+34UEqva31Zy1miM0DwHM7U4V2BEg1G70ZpU9CXV3XnH9kGZrAROfdTCvPk+4e0iLW68iGU0re5ybt4k0xD2kClno2xQXqloh0z9SoN9nLSJKKfbjkxWijbaQnZYF7Z2qmovIvdyU+/GLWy2Wgibe+ipzMuezyD+CKw7M/UYV8r6z+5ANFqqa9fZCWxtDJGHVoatVQUL1pc1Yt2WUD6mPR7SleITWxWCobQLByR3vxu7vGjWUEks4++scz8Vzp1zN0UTZkQZI4aHI+jRMVZRIkbYX5l5Vs8z+/DIKoxJaY4ixTtRwbwFTqOIGmAdsq8KF1olirvVFVlkc0lcawinMQzfSWl+JTyYPyTeMm+PxE917XhPx1N0DBk3xS2rCGkfNPQiaf3x3bI0FaH8dzK3VMu2h2Jp7NzwFWsmOrbvpRbETfIXWqVuLhvnuaaF1Ezdsdg/d5ph78N6x9ROg2WMcoOx3Fl77ssJZv3RYvO2vX6ha6u0RWw86oguh9UtLdYXHQ/KDR46+dyKHzLsT/rLXdMWg6esI1/iL6rtJTmFqdBwWvOI+8gTYG2IJz4LUgoa4OT6Nj46m9bbLWgpygpDqBAh6wnKwet545GiMLgTGKcy68vOsl+fOwut5B6/JDgZ3batgmpqJLPPwlLawnt/99Cuqv5uhrr4bpvxfOXBrmj4+ZdpqJns3rFUa5IYgSXfQHAPhDn9F72/hca83WD8Z9IrBD0egSrvZCIWcbwFGdsgG85AqZWMkrNiBTXQV1L3hPToLOKOEHB4Q/LsXc0GXkzIT7gTsTsUJ6HSHW7ASLs15T0CpU59LJuuZXVQJGw9h6XMZjnyiHex5CN263pF7aNQYDnpmPv/QLQodrYMG7WFWfITRn2FpdJjOPmYnTKScKNsisDtsR61yECYq5zoQ4gb7BQD2FeNh6zyEidKlHU1jBIZ9w/rHchEmEtd1PZIznT/Zjx/nJExUrmwj5HO5FcPZY4zQIIR42Kgl3cPHQ3EP4Pis33CcOx6EMJGo3tRtQxkeYL8468jdFd2+OOPiC0aIJxv7N520rn9hLkB4Km/odvJzj3K6K5wQq4Qpa+cdx3GSyXQa44oRvlUy6Tj1i8+rX+UdjuYnjnConUq1XC6nUtf7GyK0f32dSpXL1WolCNtQggiXWDGh/IoJ5VdMKL9iQvkVE8qvmFB+xYTyKyaUXzGh/IoJ5VdMKL9iQvkVE8qvmFB+xYTyKyaUXzGh/IoJ5dda4vfaauv3/2YVaDu+NRujAAAAAElFTkSuQmCC;fontSize=24;" vertex="1" parent="WIyWlLk6GJQsqaUBKTNV-1">
          <mxGeometry x="571" y="460" width="60" height="60" as="geometry" />
        </mxCell>
        <mxCell id="sVOYZzYlMdBRzzVB63qX-51" value="&lt;font style=&quot;font-size: 20px&quot;&gt;SNS API&lt;/font&gt;" style="shape=parallelogram;perimeter=parallelogramPerimeter;whiteSpace=wrap;html=1;fixedSize=1;fontSize=24;" vertex="1" parent="WIyWlLk6GJQsqaUBKTNV-1">
          <mxGeometry x="-50" y="320" width="120" height="60" as="geometry" />
        </mxCell>
        <mxCell id="sVOYZzYlMdBRzzVB63qX-52" value="&lt;font style=&quot;font-size: 20px&quot;&gt;Navi API&lt;/font&gt;" style="shape=parallelogram;perimeter=parallelogramPerimeter;whiteSpace=wrap;html=1;fixedSize=1;fontSize=24;" vertex="1" parent="WIyWlLk6GJQsqaUBKTNV-1">
          <mxGeometry x="750" y="473" width="120" height="60" as="geometry" />
        </mxCell>
        <mxCell id="sVOYZzYlMdBRzzVB63qX-53" value="" style="endArrow=classic;startArrow=classic;html=1;rounded=0;fontSize=20;" edge="1" parent="WIyWlLk6GJQsqaUBKTNV-1">
          <mxGeometry width="50" height="50" relative="1" as="geometry">
            <mxPoint x="660" y="500" as="sourcePoint" />
            <mxPoint x="740" y="500" as="targetPoint" />
          </mxGeometry>
        </mxCell>
        <mxCell id="sVOYZzYlMdBRzzVB63qX-54" value="" style="shape=table;html=1;whiteSpace=wrap;startSize=0;container=1;collapsible=0;childLayout=tableLayout;fontSize=16;" vertex="1" parent="WIyWlLk6GJQsqaUBKTNV-1">
          <mxGeometry x="400" y="659" width="200" height="100" as="geometry" />
        </mxCell>
        <mxCell id="sVOYZzYlMdBRzzVB63qX-59" value="" style="shape=tableRow;horizontal=0;startSize=0;swimlaneHead=0;swimlaneBody=0;top=0;left=0;bottom=0;right=0;collapsible=0;dropTarget=0;fillColor=none;points=[[0,0.5],[1,0.5]];portConstraint=eastwest;fontSize=16;" vertex="1" parent="sVOYZzYlMdBRzzVB63qX-54">
          <mxGeometry width="200" height="30" as="geometry" />
        </mxCell>
        <mxCell id="sVOYZzYlMdBRzzVB63qX-60" value="Eye" style="shape=partialRectangle;html=1;whiteSpace=wrap;connectable=0;fillColor=none;top=0;left=0;bottom=0;right=0;overflow=hidden;fontSize=18;" vertex="1" parent="sVOYZzYlMdBRzzVB63qX-59">
          <mxGeometry width="100" height="30" as="geometry">
            <mxRectangle width="100" height="30" as="alternateBounds" />
          </mxGeometry>
        </mxCell>
        <mxCell id="sVOYZzYlMdBRzzVB63qX-61" value="Skeleton" style="shape=partialRectangle;html=1;whiteSpace=wrap;connectable=0;fillColor=none;top=0;left=0;bottom=0;right=0;overflow=hidden;fontSize=18;rowspan=1;colspan=2;" vertex="1" parent="sVOYZzYlMdBRzzVB63qX-59">
          <mxGeometry x="100" width="100" height="30" as="geometry">
            <mxRectangle width="34" height="30" as="alternateBounds" />
          </mxGeometry>
        </mxCell>
        <mxCell id="sVOYZzYlMdBRzzVB63qX-62" value="" style="shape=partialRectangle;html=1;whiteSpace=wrap;connectable=0;fillColor=none;top=0;left=0;bottom=0;right=0;overflow=hidden;fontSize=16;" vertex="1" visible="0" parent="sVOYZzYlMdBRzzVB63qX-59">
          <mxGeometry x="134" width="66" height="30" as="geometry">
            <mxRectangle width="66" height="30" as="alternateBounds" />
          </mxGeometry>
        </mxCell>
        <mxCell id="sVOYZzYlMdBRzzVB63qX-69" style="shape=tableRow;horizontal=0;startSize=0;swimlaneHead=0;swimlaneBody=0;top=0;left=0;bottom=0;right=0;collapsible=0;dropTarget=0;fillColor=none;points=[[0,0.5],[1,0.5]];portConstraint=eastwest;fontSize=16;" vertex="1" parent="sVOYZzYlMdBRzzVB63qX-54">
          <mxGeometry y="30" width="200" height="70" as="geometry" />
        </mxCell>
        <mxCell id="sVOYZzYlMdBRzzVB63qX-70" style="shape=partialRectangle;html=1;whiteSpace=wrap;connectable=0;fillColor=none;top=0;left=0;bottom=0;right=0;overflow=hidden;fontSize=16;" vertex="1" parent="sVOYZzYlMdBRzzVB63qX-69">
          <mxGeometry width="100" height="70" as="geometry">
            <mxRectangle width="100" height="70" as="alternateBounds" />
          </mxGeometry>
        </mxCell>
        <mxCell id="sVOYZzYlMdBRzzVB63qX-71" style="shape=partialRectangle;html=1;whiteSpace=wrap;connectable=0;fillColor=none;top=0;left=0;bottom=0;right=0;overflow=hidden;fontSize=16;rowspan=1;colspan=2;" vertex="1" parent="sVOYZzYlMdBRzzVB63qX-69">
          <mxGeometry x="100" width="100" height="70" as="geometry">
            <mxRectangle width="34" height="70" as="alternateBounds" />
          </mxGeometry>
        </mxCell>
        <mxCell id="sVOYZzYlMdBRzzVB63qX-72" style="shape=partialRectangle;html=1;whiteSpace=wrap;connectable=0;fillColor=none;top=0;left=0;bottom=0;right=0;overflow=hidden;fontSize=16;" vertex="1" visible="0" parent="sVOYZzYlMdBRzzVB63qX-69">
          <mxGeometry x="134" width="66" height="70" as="geometry">
            <mxRectangle width="66" height="70" as="alternateBounds" />
          </mxGeometry>
        </mxCell>
        <mxCell id="sVOYZzYlMdBRzzVB63qX-73" value="" style="shape=image;html=1;verticalLabelPosition=bottom;verticalAlign=top;imageAspect=1;aspect=fixed;image=data:image/png,iVBORw0KGgoAAAANSUhEUgAAAOEAAADhCAMAAAAJbSJIAAAAk1BMVEX////6+vqwvsUzMzMvLy8tLS0pKSk0NDQmJiYqKio3Nzc8PDyxv8Y+Pj4jIyOsu8LL1NjS2t6+yc/g5ejw8vPq7e/Ay9H29/jY3uIeHh7i5+nX19fU29/e3t5ERETM1dmenp5oaGi0tLTPz8+ZmZkZGRmmpqa+vr5wcHBUVFRISEhWVlZ7e3uHh4d+fn5hYWHGxsagmmhbAAANAklEQVR4nO2d6ZaqOBRGg7OIMsgkijiVWlZZ+v5P10ETxgQSgt2rNd+fvr3Wrdr3HM6QEQCQkpKSkpKSkpKSkpKSkpKSkpKSkpKSkpKSkpKSkqqWoigeFPzPu4CyTM925r4ZRYYRRaY/d2zvNfR/DZSn2o4fuZrW6egPdTqa5hp+YLfNVuzAN4qgyHdaB+XlOSsXMsvSXDPw2gQFJgTpJNDKaRNUwM4Ni2TeU5Yxt1sC2XWg19gI7SM+vqx/W7HRnpPjJAN6hY1KUGdfS+h6Rz5BQcv5aJv5sIkzvxOXgeefUlmRIwRyIlaQ2VZOxFJycQNRsHzC6h0Ec39luJaWhWvWvLl3lbmVA2mWa6yeINOIS08W5AqACvLMLFazorgzxT04VtyzTGhkBh01jVQvyoPMRwtEnBgU5UFmS9loZxJDhwlgKyXZMEszaLdZpDpuhw+kGa1EqmNlsU6Z+pQTZdBWExNzoIgOMkRBBQXJ79M7BsGrGf9m0NqcGzTXUvvqQMlYQNcCUQNTbgeWkBoFaZhpPifIT0FuUAeap4+7gS8pXC2q9CvybqYm8ZnoZ+oHCyitSdy+zCl9gpbv1XNhxct4l8e580yksIH8BCTyFANsoFYfOFhO0jo5yPMURK0wRQUpqHEuJsWtooQSTEyai8VKDkRBDStq0p64uNkcYSSnnmTJdZKJzRowrMnYQC5u1kSXpSPbbjMDH/0J/WiT1p8M1bgNzJjIMoDz0r/MD8ImNhnAzVP38HIfPRmR/brRseK3A+IuqElusBe3HBlHXm21SaqM28DAuHQ3rDYe8o1uNTIQki2dKRWxK8RBBlecJqGj1Y7UaMJRrq2q4lRZtQeqTYiscIzqZlOuovg6Q5ziGNX95iATgzjiNIlRl2kERZFbHz4pSIDjMYCKQg9e1xwgQLZRhtDDByeDbjWqMkjAQbM29npqY6cIhE4snCEWrdjYlmgSPuXjSGDs+8kPGCIxCoVjsGOSH6JidnB4iYKSR8L2CLFnG9bvVLiSU2oAqmeNG0UGVBctZM+uBD0bT+IQOSL5VolwmRcHraqjpeBZDQe1KDcd2mikh4gd3w5Ip4Moj1ATLDNP4apslH2rGLgCtgHC0cLwEO0WPZuOjAm+xY+wyYCbAMLRUp+JZpueTR9iVAJFLwF1zNpHaLXp2cxDLPrWbvURpqDacuq369n0IRZ923KspKCaxUXFajMLYyW+zQ8avZZjJc1Eq7rWBG0W0qfw2DM/aJzrrwJ1qufcBh6EtAdGs3DdzYFQ/2q2gkABoSGSUWWgnXSVFoUmublag0BwetyicCevqjVozG0xr3CzCE+nVxkQGmW1GSuKgqfTFbVGcdtO/1heudYkdUZ4RJoVLmouvdagYUab6R8L1fHMuAaDWmsVT/klUClItRfETlJrtLQlotXmNuvMA2ShJ1QbpK3GDgxTtKrt4jD1kMlR26C6ME1cUPxJ7IGmKoYpNUhFQUkQcgVpfBwxXC6XYXz+sBnYLkQPBuULWnwcURBUE6YK2ubIBSnwwtPx+nvenn+vm9PSboTG0YNmiQr+3xzIXp42KcgTAWnENYVkgT0bpMDbb36/19PJQ9Pv8+beqJEkD+0JKmdDDDp/r5+cyRqC9iIgyqIbapiZBSgQbrbryTTVZHpeNnEujp7n2HReygYQHm550Po3bARCv5o8Nk3sx1jl/pvDQq2PjVzr5foF7hU4SIFyOhdBl12jOpvEITkNn9kRYa63u02LOjRLRDxkfCQiBuHBL7CPP5Mi6NiwkUS5jK9MQ2Bvvotc9dx0mX+eSUSchqhXAOdwKYKGfw09WZmITi4NgbcpcSfrRkkYC//yOD+CXBoC+1CM0Onk0igJH6CKjojdjMJjVzJw2j007sVof+iRH083430t71gGDY/NQbmalk/DZ/7rxvNvnn7UIlf9EdiKQitrsFGhVNFRvu++y6Bb0xiFes7hNcK6KWqW+mNOCpbnEnc63AjstaGZJxyaorqKNrb22xJoou4EQCsdjSZohabzmPw6h0kpdNRL4yxUsvmRy/fgqpZB32FzjoJWmgilJgc+fauTorpnkXmxnbRiPLCIf5u3uxBAV5EpB73UZAtN+FfmTrobAa6iPDfaYAV4gvQn6Dwsg4Y7EQ691OAKp1A8q6onIQtRBfBRx3pUNO84JYAmdyFQpmoTS2lc4cLfbtmz6mQvBEYVwPTMtKKFZxLoshQCRZRi6qEa7sNqciI8QmihEBgvARsOqtlzAGNlTQKJWYj3JUon6rwU7Fy7KkGCzxDXuCCt2c4fATQZClo4p7QL3CxgKV3+EC1UxdID1TjXd5Oavb8MSZypmCsdSrvAzQKOJnZE+9TuUQjsoVqNLlBpHqwzZE92hWpp0peK7cJJwPZfjwjuCfVD3C6s581C3YLOPlNAf0JLcB7FwiABh5QgHU73IiekcEO0NAxaXijPUGjwBBuijsYWpIYft8P7hJgd8UMs+pZr3Q/1KS0Bnbo00F/xZ7ksdvHYgmbhcUzmqsP+IWcSAEuepQZ8bqmDG/6BCurlZ08A7HlSk2IhHmkA769PAavDQWYRA4Dw0Pthn+bgkwnIwgh4Zyqo29+kq4lACa/jLUcNMMiDGh+D7Vt/SFO3vz2hBTJnf7gMehxzcbxxjyw0gfPTqwCd70+Q5+yv60HvJ+B2ZcFCZYXB4YUOhuTh7Xo87Y7X22TcG3bXd3bwKmfhCizX3SqQikFqDOIoPtiVhbPJipmApxUWxujxQ/34n9edss9VM3e3Oo/R4X5YYWERtD5xu9KkWbjvVoIhLRb6o8q+oILHi4mF9zEHaMLhyjoL74Muh9jXpkoW7nhAPK6ss/A0epGF805Wc7DjArGvEdVayAcWsPD4n1k4+5cs3HBY2GvTwhOHhb2eQB7yPMOWLexxSKTSjDg4bVp4H78IXOyHXK5soZYmY5r9sM8O5thgKI1p7mN2UH/C0fHJY5p0XBrCUeArwR3syqXKHi39KcfwkDwuTecW9jd7fvQ5tttKc4vwwu7KMc92G2VukcwPvTN7foy/OXajCvNDOIlhd+WAZzeqdgZ8mPVZNSrN+uvB6Rz/ygH6ZefQLEzXaU6DMTOYZ8u0tE6zY7dwwLGxR1unSdba4PRpxMgd99kLDWGtba8OWEFd9kJDXWtL10udLatvR2uO/C+tl4Lgxgqa8eQ7bb00WfMG3mY2ZtPizIwlrHkD+7BgBf1xxAptzTuzb3GfjBjBPLvRpX0LoJy6bKDBgiMbqPsWmb2n4Mzm25HKvjxE3HsKb2yg2ZqjV1D3njL7h95xPBoPajX+4okd0v6hvRkNGECDxZUHRNs/zO4BL39mDNxRn6PAkfeA998soJnKtcpP2wPO7uND344YPPvLs4HikfbxncOMAfR15eBU7ONnz2Lsfxb1nu1xPULyWQyWhzhTuXaE6Gcxsudp7GN/NqrRF9+ZEPJ5GvtQh4GgAxeIfp4Gn1SOTxCA8Lyo4S4496LJZ6LAclsL4jw/hG7jEM5E5c+1ndbV5NmMc6OWdq5tN6kBDTgPudDPteXPJnqbXlWczhZXvg1h2tlEOLAZV4MOnCD62cT8sS/gXAd08mxx5jwASj1fCsLfURXol2NU8QBVnC/NnxGGqUglzxY33uMS9DPCMBVnVNBsy3vypOqMcHILQkHk82AxI+vGffCk4pw32G9HZMxitOU+eJK/2VFQ4aw+CP/6JBMX4zM3t/KsPvTlmAjq/XKfHao8q1+6bwGCw/qriF4sJlf+M0vV9y1AeJ0QQOsr/2nv6vsWpTszwDud+zn04mtw2zU4C11zZwbYu+2gAOpvBUCUOzOEe08gPJ7VxdfXItbX11fvtlk2uHVVe+8JgOVxO/xKQd3tUQCkkdOQeHctvth12F6GcD7VXd+uu2ZXuxjurgFvubtuL90HaHvdhY2udtVdsSTePwSKHe7vu93utA+dhrfmmO4fAsUJ9ycxUN39Q9od0vicUPx266ZXH5nvkD4+ZtGcU3+H9P3vAX/AXe73v4///u9U+ID3Yrz/u00+4P007/+Oofd/T9QHvOsL4IL0tu9r+4B37r3/exPf/92XH/D+0vd/B+0HvEf4/d8F/QHv8/6Ad7K//3v1P+DbCO//fYsP+EbJB3xn5gO+FfT+33v6gG92fcB31z7g23mC3z/k+fLif/X9ww/4huUHfIf0A74l+wHfA/6Abzp/wHe5P+Db6lC2yfrZ+kgsM5yIFWS2FKFYSpDJRqo0Yy4aON6cDRS0+QBZ0TBu2vCrncuJFzmSLGijRcdaRiv2xbLrQK+xL5bnrMj+1VwzaBPrBWZcWEiglfM6+2IptuNHbpz6+kNxGXANP34VftugwDeKoMh3WgeR2HFn8s0oMowogk0j7ln/bxCZHvfgR9t/F5CUlJSUlJSUlJSUlJSUlJSUlJSUlJSUlJSUlJTU/1//ABIM3dMkmlQLAAAAAElFTkSuQmCC;fontSize=18;" vertex="1" parent="WIyWlLk6GJQsqaUBKTNV-1">
          <mxGeometry x="425" y="698" width="50" height="50" as="geometry" />
        </mxCell>
        <mxCell id="sVOYZzYlMdBRzzVB63qX-74" value="" style="shape=image;html=1;verticalLabelPosition=bottom;verticalAlign=top;imageAspect=1;aspect=fixed;image=data:image/jpeg,/9j/4AAQSkZJRgABAQAAAQABAAD/2wCEAAkGBxITEhUSExMVEhUVFhUYFRcYFxYXFRUVFRUWFhcWFxgYHSggGBolHRcYITEhJSkrLi4uFx8zODMsNyguLisBCgoKDg0OGxAQGy0mICUtLTAtMi0tLS0vLS8tLS0tLS8tLS0tLS0tLS0tLS0tKy0tLS0tLy0tLS0tLS0vLS0tLf/AABEIAOEA4QMBIgACEQEDEQH/xAAcAAEAAQUBAQAAAAAAAAAAAAAAAgMEBQYHAQj/xABAEAACAQICBwUFBQcEAgMAAAABAgADEQQhBQYSMUFRYRMicYGRBzJSscFCcoKh0RQVI2Ky4fAzc5LCw/GDk6L/xAAbAQEAAwEBAQEAAAAAAAAAAAAAAwQFAgYBB//EADIRAAIBAgIHBwQDAAMAAAAAAAABAgMRBCEFEjFBUWGxE3GBkaHR8BQiweEjMvEkQrL/2gAMAwEAAhEDEQA/AO4xEQBIq15FmkkgEoiIAiIgCIkSYBKJC3WSBgHsREAREQBERAEipvnIs0ku6ASiIgCIiAIiRJgEokJIGAexEQBKbNJkSKrACrJxEAREQBERAEgJOeEQCMkBAEtnxSi9u9bfbcLb7k5CcznGH9n8/PgfUmy6iaTX0ji8axTCnsKIJBrZ3e2/YO/0t1I3S50XqelKotU1qruDcm4VW5hhmSOl5V+r1v6RuuLy8sm35Fh0FFffKz4bX48DbLxeWvZryHoI7Mch6CSdu+Hr+iHVXEu5TZpr+m9XziGDdvVp2FginuXzztzz/KY80tIYQ7at+10h76Z7YHNQbkeRPHKcPFNP7ou3FWfptJFRUllJX4PL12G5KslMborS9OvTFRDYHnwPFTyMyUsQqRmrxdyKUXF2aERE7ORERAEgsnPCIBGSAgCewBERAEREAREQBERAEREAShWrBRc+Vt56SOJxAUcydw5mW1NTfaY3Y8eHlyEqV8RqvVjt6e74L4+4QvmyoQz+9kPhH/Y8fDd4zHaVpGsVwy3WnYNWIy7l+7SXqxBvyCnnMkDIVa4UgWLMdyjf4nkOplVtb3t83y/Sy4Imi2nl85/t+LKlCkqKFUBVUWAGQAHASpLfZqHio6AFvzJHykTWdPeG0vFlBuOpXPLqPSSvWiryi0vD3uvFZb7HFr5J5/PB+DuXUQDIVqoUXP8AcngAOJnxzSV2z5a5OeS3BqNn3U6EbR87EAfnB7Qbwrj+Xut5Akg+on207X1Xbu/H9vQ+2XFfOez1MfWwPZVu3pDJyBXpjcwO6qo+MceYvx35QXX3d3wnd5cvlIUq4YXB3ZEbiDyIO4yRMijJbYvy+b9+7odu7yZcUawYZcN45eMrTGve9wbMNx+h5iXWGxAYciN45H6y5Rr6z1Zbevzh5b7RShbNFxERLJGIiIAiIgCIiAIiIAiIgCIiAJSrVgilmyAlWYXSNfacINy5t1PAeUrYqv2NPW3vJd79tr5Ikpw13YkjFiXbeeHwjh/eVg0oK0kGmMqnMtNEsRW2Vva5yCjmSbAesr4PD7IzzY5seZ+gHASzY3qUl++/moAH9cyGLr9nTepa+wrNbnYXtNLAw1rz8F89PDmyvWeqkvHr7XKlSoqi7MF8SB854QCLjOcy1q07hcPhamIrV0q4wbNqBqAOQzAAKmbKuySb2tK3s+1mWuKdSldadVjTqUyb9nU6W8VzyuGzz3a3ZrOzzXzIzliZZOUftdrO/HZdG+UBssU4e8vQHePI/wBQgDac8kyH3iMz6EDzMVf9VPBx5d0/QSWD+3/uP8/0tMeEEq+puWfoml4N5dyNNv7dbivy162z7y6JAFyQAN5OQEo0cZSqGyVEcjgrKT+RmvacxNFqxTE1lo0aQUku6qhdrEbTNl9oAX5dZzPRGutOtjnwoVQBUqjD16ZPfFMsVYg7tpVvcGbEacck3ZvkZs681dxjdLbnw25fPydmxlE/6iDvgbviHwn6HgfOeUqwZQwzBAI8DPdDYo1aCVG94ghurKxUnzIv5y1w2RqDgKjW/FZ/+0x8fDs5a3HJ9/8AiZo0J9pDLvXc/wB9S5LSk7lSHXeOHxDiv6dYZpBnmf2hPqmXo1Q6hlzBFxKswmi8Ts1DTO5u8vQ8R575m5tYWv21PW37H3r32rkyrUhqSsIiJYIxERAEREAREixgEokLeIkgYB7ERAKNesFUsdygn0msYSoTtMd5Nz8/rMrrHUtS2fiYDyGfzAmDwr8J5nS+I/5Eae5L1f66s0MLT/jcnvfQyavKqtLJHlZXlDtiVxJV6my9KpwDbLdFqDZv/wAtiZd0FRGRgbMCp52ItMRUsVIYXBBBHMHK09wVauF2SqNY91nqWYrw2gqtnwvfO15t6PxcacXGbtvXT/CrWpa9rW+f6zm+vPs4OJrLUZnpsoClghdKqKSRuPcbO2f95uOrOrFGiwNCgcNQU7YQliz1CoXa75LWyBz5CbCMfVHvUSf9uorfk+yZbnSDVCUphqZHvlxsst/hQ5k9Tl47prT0hRjFzb659y/RRjgZKybvFZ7Vlwu1m7bl6MuEbaqluCDZ8WYgt6AL6me0m2arKdz95fEABh6AHzPKKCKihV3D15kk8STneeYmmHFiSM7gjerDcR1mCsa1V7S2/Z6dNnNIu6q2btn569WYXXPVr9rpuuyXWqoWooIDXUgrUQnLaFhl/KN81XUvUIYTtVWj21RyuxWq0gjUAAQdhjnmDns2v1m+/vLsx/GBsPtoCQfFRdlPqOsqjHVXHcp7A51TskjmEGfqVm7DH0ZRTTTt5rvXzkU5YKV202k9uyz8Wssttsy6wmHWlSWmDko3nK/EseVzczE4GptKanxuzj7pNk//ACFksZTqOpR6osciFTZuOIuXOR3HpPLkb7eQt9Zi6SxqqNKO7N9/+dS/QpKEbd3kvnoVGeUWeRd5RepMjtiyolPFVCCrDepuPn9JteHrB1DDcwB9ZpuKe+U2DVqpels/CxHkc/1mloeu/qJw3NX8V7p+hHi6X8Slwfo/2ZiIiekM0SKm+cixvJKMoBKIiAJESU8IgEZICAJ7AEREA1vWp+9THLaPqQPpMRTMyetJ/iL90f1NMShniNKZ4up3rojbw8bUY935LtHhajNmDsjwBZhzzyHhY+W6UlMuFaU4S1c959a3E6DsLZh1NrG1j0vwI9Jeq8xbOaZ2rEoc2A3qeLAcRzHnzl7SqAgEEEHMEbiJ0psjlEvFeSYg2uL23HiPA8JbBpINJo1pIhcCvtTwtKW1Bac6w1SeVwTmRu6HmOvWRNWQLSmxn1Vmsj6oFSpU4nyEsauIO5Rtdb2UdL8fIGVmMs2rbR2V3DJmG4W+yOvy8ZHUquRNCFh+0G9mGyeGdwegP62kHeTqAWt/mW6UHMhuTWIOZmtU3zqDnsn0JH1mDYzL6qH+I33T/Usv6LdsXT73/wCWc4lfwS+b0bVKbG8k4hVntzCCrJREAREQBERAEREAREQDWNax3kPNSPz/ALzCqZsmtNG9NX+FreTD9QJq1SqFBZiFUC5JNgAN5JO6eM0tBxxcudn6JdUzcwb1qC5F2rSo1YKNpiFA3kkADxJmg6V12ZiaeDTa4dqwNvwJx8T6GYv9yV8QdvE1Wf75yHgvur5CS4bQlernUequeb8vd35Feri4Rdo59Pngb7iNcsDT34hGI+Daqf0AzFvrxglJajUqLfMqaVTs2PO1rqeo9JgF0XhKfvNee7eB3fpNSGgqEVnKT8V0s+pW+tqbkjbtG6/4Kpk1Ts2/nDBf+RFvW0z/AO9aRUMjrVvu2GDA+YyAnMTgsFU3NabnqpodKdMKosD3mPFieJ8rShpHR1Ogo9m23J2Sdns252vkT4ep2jbkrJGVOJqNx2egH1Ofyl3QQ8WYnxjYW+yo3f5cy6FAiZ0I6ss8yec1ayViBU87/OWGI0iinZuXb4VG03mOHnaXrNaWdSqNvLiM/Ef2n2vGnq68fIU1faUCtSp7/wDDX4FPeP3mG7wHrK2QFgLAbgNwnrPKTNKTdyYO0t2MmzSkxn07iiJMzmqa95zyUD8x+kwc2fVWkBTZvia3ko/UmaWiIa2Li+F36W6tEWNlag+ZnYiJ7MwhERAEREAREQBERAEx+k8etJNo95jkq3tc9TwA4n5mwlxisQtNGdjYKLn9BzPCahj8S+JcMT2SqCFAG22Z3knug5DIX3b5Q0hjFh4Wi1rvYn18OtizhqHaSu/6rb7FziMTVrqVaqFU/ZSmCMjcZubk+k1DWnVt66he3JVTfYtsqx4FuZ5Z2mzLh2UZV6g/BSI+UssTXce8VcDeQNlgOZG4+Vp5meLq66qtrXWx7fLbzNWFNNOCS1Xu2fhGhvWo4NbWvU49DMHU0tisU5Sij1DyUZD7zHJfMiX9DR37zxlaqGK4ZWAJHvPYWAXle178ARx3dBwGDp0UFOkgRBwHzPM9TNzFaX7CKjq3qWV1naN0nnz5LxZQpYLtG3f7bu3F/OJoWE1AxdTOtXp0ugBqN5+6PQmZFfZots8W9/8AbUD02vrN3DSYaYktL4yTvr27lH8pv1LX0dNbvVnOsX7N8QoJo4lKh4B1an+YLfKb1ovE1EpKjqEq2VStwRe1toEb1yJ8jL0PKeIXaAIttKbqevLwIykNbH1qySqu9tjsk89uy207pUo027b/AIjNaLpi3hvPEnmZe4jEi35AczNd0dpVXUhGBsSGAIJDKbEG3Iy4w2J2mLHdcqvgDY+pHoBO1VSjqLbv7+HcQzoty1mXOJBtczFse8PGXmPxe1kNwmOptc7XDh16ytX1dZqLuWaUWo3ZdM8pM0iWkCZCSKJJjIxIz6SJHtrzedH0OzpqnIZ+JzP53mtau4Lbq7R91M/FuA+vlNwnptBYdqEqz35LuW3zfQytIVbtU1uzYiIm+ZoiIgCIiAIiIAkVa8ixvJIIBjdP0S9BgCBaxNyALKQTcnIbvympYPEtvWntdWYIp8L5n0mc1uZrU0+wxYtyLLYqDz3sfwjlMThNjaCllDHMAkAkcwOM8rpicXikks1FX6ryvm/Dca+EVqF3sbK1XFVbe5S8qpv+aATBaX0tTo03qVQaYVSQDY7R4KpGRJNhabPisJYXnMfaNpKmyjCqwZi4Z7G+yFzF7cbylRo/U1o0rZN524b+O4lVWEKcpx3d+3d6mA1F0m2HclhdKlu0A4EXs465nLjOo0qqsAykEHcROZaLw9hNk1XNRq+yrHZtdl3ixyUm+4nh0B8/QaR0WsS+0pu0t/B+z5+fEoYXGOl9ss10NrvJBpLGr2S7TlbctxPgZin0qN4ViOBsbfKYUtE4xOyh6x9zQ+soNXcvR+xlNqYbT2mNgGlTb+IRmR9gH/t8t/jmNH1EqrcNdhvXdb9ZpesujTQq9oo/h1Dn/K5zI8Dv9ZpYLQrjJTxFsv8Aqs/N/hXvxKmIxya1afn7Gn6RoulyjMh5qxX5SroLXjF0VFEstQLkC4Ja33r5zNNo96w/hoX8Nw8Sch5zEaX1KxSKa2ypCglgrAuFAuTa1jbfkeE18S8JKWpXcbvc3ny33KlHtktane3p7Gcxena+IpEbezcZhcrjx3zOaiaRNTD9mxu1E7HilrofTu/hmiaArXFucz+plXYxrU+FWmfNkO0PyLSnpLBUvpJKnFLVzyXn6E2FrydZazvfL542OgSAMqgWF5TJnk3Gyz2myndiTo0izBVFyTYCRVSSABcnIAbyZtuhdF9kNps3O/8AlHIfWWsDgp4qpqrKK2vhy72Q4jEKjG+/cXmj8IKVMIPEnmeJl3ET28IRhFRirJbDAlJyd3tERIE3/wA3zo+E4kAOUkDAPYiIAlNjeTInirACrJREAtcdhFqoUbcdxG9SNxHWcP8AaPQZMfSovYlKAYEbm26lQBrcPc3dJ3qcY9stHZ0hQqfHhwv/ANdVz/5JE6MHUVW33K6vye47VSSi4bmaTp7FOosGYDoSPlOl6j+zPAPg6GIrK9WrWpJVY9pUQKaih9kCmRe17XN7zmGsCXHlO9+zfEipovBEcKFND40h2Z/NTJbHLk3tZjsZ7NsMQRSqVKJ4Zh1Hke8f+UtdFatPgxZiHJOdQDI2yUEbxlwnQZCogIIIuDvEHw5TrZpNVYNUsVDbKLzI3k+YP5dJrdXT1+I+g8JsPtM1ZcXKX2WO0hPBhe6E+pv1vnYzkr0K4Oz2dS/RSb+BGR8oB0DV/TN6xI+zZvEDePp5mbnpKnTq3UgOh333GxvNC1H0K4u1TItvG/ZQb/M3+XW3QeyHAzF0vjp0kqVJ2k8296XLm889qWzN3V/BYeM3rz2LZ85cPYt0QAAAAAbgMgPAT1lBBB3HI+BlbsTI1E2QWNrKCT4AXM8o6crPI2FKJxbQa7LlfhYj0NpsuiCFx1E3sSzA7jcGm4sOR424ia1q+SW2j9ok+s2jQ4atpLDqBcguTuF9mk+ZM/QMVd0am96suh5ulbXj3o6BKuFwj1G2UFzx5Dz4TN4LQYOdRvwr9W/SZ2hRVBsqAo5Ceaw2hak3rVnqr19l458jVrY+EMoZv0/fhlzLHReiloi/vPxbl0XlMpET01GjCjBQgrJGTOcpvWk7sRESQ5EgsnPCIBGSAgCewBERAEREAREQBOY+3DR5NHDYkC/Y1SjHklYDM/jpoPxTp0xeseiFxeFrYZshVQgHfstvR/FWAPlAPnzHpt0wek6F7CdMA0a2CY96k5qUxxNKoe9bwe5/+QTn+CVlL0Ko2aiMyMp4OpIPlcb+MtMFpCrgcXTxdLNqZ7y7hUQ5Oh6EehAPCAfUETG6C0xRxdBMRQbaRx5qeKsODA5ETJQCx0thBVpMpG1xA6rmP085pL6KwpN9j/PnOiTgWJ0hiSzWrMF2mtbZGVzbcOUA6Ph9GioD2Y2QoAy68+e4S1xOrtb7LsPAmW/spxj9pXpVKjOWVHXaJNtklWtf7yzo9pWrYSnVf3E1OvKmsjmTaCxo3Vm9FPzE13XkYjDYU9pWJNY9kq2A2toHb3DcFv6jnO0YqulNGqVGVEQFmZrBVUC5JJ3C0+ddc9YzpPGdooIoUrpQUix2b96oRwZiAbcAFG8GV46LoRknbYSyxlRqxaaEpWG0eAm3eyzRrVsZWri+zSphb8Nqq1/yVD/yE1fF1BSpcsrnwna/ZpoE4TAorrs1apNWqOIZwLIeqqFU9QZoSV1Yqp2dzPYfCkS8RbSUT4opbA3cRETo+CIiAIiIAiIgCIiAIiIAiIgCIiAcp9rOqpB/eNBcwAMSo4qostbyAs3QA5WM0B1WsvWfSTAEWOYO+cd141AqYZmxOCUvR3vRXNqXMoPtU+m9eo90DTdWdYsVousXpd+mx/i0WJCPbiDnsP8AzAHqDO5aq66YPHr/AAamzUt3qL2WqvPu/aH8y3E4dTrU6wzteWGK0OQQy5EG4IyIPMEbjAPo/WjSq4XCVq5IGwh2b8XPdRfNiB5z53/eoAteWmlMVjayLSrYitWRDdVd2YA7r5nM9TffMMdHvzb1/tANx1e1s/ZcTTr5lVazgb2ptkwHWxuOoE7bjtd9HUqAxDYqkUYXTZbad+ioveJ5i2XG0+ZqOim3m58eP9pksJoUk3IgGya66719KN2SK1DCg3FO/fqkbmqkZZbwguL53JAtj8HhlpLtGSVKdIZ2Jmc1R1Rr6ScVH2qWFBzqbjWHw0vq+7lcgwC59m2rZxuIGKqg/s9B7rcZVqym4Uc1U2J6gDPvAdwltgMHTo01pUlCU0AVVG4AS5gCIiAIiIAiIgCIiAIiIAiIgCIkSYBKJDZ8pIGAexEQBERANG1r9m+GxbGrTP7LXOZdBdHPOpTyBPUEHmTOdaU1S0nhL7VA10H26F6gIvxQDbB/DbrO/TwmAfM40mm12bLZ9xUizA9VOYkzi6I3geuX/qfReJw6VMnRXHAMob5iWB1VwBN2wWFJ5mhSv/TAPn59LUgcrXOQ5k8ABMto7QeksVlRwtRVP26g7KmOt3sWH3QZ3rCaOo0v9KlTp/cRV+Ql3AOb6teyqjTIqY1xinGfZgEUAeoOdXzsP5Z0WmgAAAAAyAGQAHAScQBESBN/83wCcSGz5GSBgHsREAREQBESLNAPGPrJCUwLyrAEREASMlPCIBGSAgCewBERAEREASmWvJkTxVgBVkoiAIiIAiIgCRElPCIBG0kBAE9gCIiAIiIBFmkBnJst56BAAE9iIAiIgCIiAIiIAiIgCIiAIiIAiIgCIiAIiIAiIgCIiAIiIAiIgCIiAIiIAiIgH//Z;fontSize=18;" vertex="1" parent="WIyWlLk6GJQsqaUBKTNV-1">
          <mxGeometry x="527" y="700" width="50" height="50" as="geometry" />
        </mxCell>
        <mxCell id="sVOYZzYlMdBRzzVB63qX-76" value="" style="endArrow=classic;startArrow=classic;html=1;rounded=0;fontSize=18;" edge="1" parent="WIyWlLk6GJQsqaUBKTNV-1">
          <mxGeometry width="50" height="50" relative="1" as="geometry">
            <mxPoint x="453" y="647" as="sourcePoint" />
            <mxPoint x="453" y="598" as="targetPoint" />
          </mxGeometry>
        </mxCell>
        <mxCell id="sVOYZzYlMdBRzzVB63qX-77" value="" style="endArrow=classic;startArrow=classic;html=1;rounded=0;fontSize=18;" edge="1" parent="WIyWlLk6GJQsqaUBKTNV-1">
          <mxGeometry width="50" height="50" relative="1" as="geometry">
            <mxPoint x="546" y="647" as="sourcePoint" />
            <mxPoint x="546" y="598" as="targetPoint" />
          </mxGeometry>
        </mxCell>
        <mxCell id="sVOYZzYlMdBRzzVB63qX-78" value="" style="edgeStyle=elbowEdgeStyle;elbow=horizontal;endArrow=classic;html=1;rounded=0;fontSize=18;" edge="1" parent="WIyWlLk6GJQsqaUBKTNV-1">
          <mxGeometry width="50" height="50" relative="1" as="geometry">
            <mxPoint x="260" y="600" as="sourcePoint" />
            <mxPoint x="380" y="720" as="targetPoint" />
          </mxGeometry>
        </mxCell>
        <mxCell id="sVOYZzYlMdBRzzVB63qX-79" value="" style="endArrow=classic;html=1;rounded=0;fontSize=18;" edge="1" parent="WIyWlLk6GJQsqaUBKTNV-1">
          <mxGeometry width="50" height="50" relative="1" as="geometry">
            <mxPoint x="260" y="600" as="sourcePoint" />
            <mxPoint x="180" y="600" as="targetPoint" />
          </mxGeometry>
        </mxCell>
        <mxCell id="sVOYZzYlMdBRzzVB63qX-80" value="&lt;font face=&quot;helvetica&quot; style=&quot;font-size: 16px&quot;&gt;Phone&lt;/font&gt;" style="text;whiteSpace=wrap;html=1;fontSize=18;" vertex="1" parent="WIyWlLk6GJQsqaUBKTNV-1">
          <mxGeometry x="-99" y="152" width="55" height="37" as="geometry" />
        </mxCell>
        <mxCell id="sVOYZzYlMdBRzzVB63qX-82" value="Settings" style="icon;html=1;image=img/clipart/Gear_128x128.png;fontSize=18;" vertex="1" parent="WIyWlLk6GJQsqaUBKTNV-1">
          <mxGeometry x="529" y="200" width="60" height="60" as="geometry" />
        </mxCell>
        <mxCell id="sVOYZzYlMdBRzzVB63qX-87" value="" style="endArrow=classic;startArrow=classic;html=1;rounded=0;fontSize=18;" edge="1" parent="WIyWlLk6GJQsqaUBKTNV-1">
          <mxGeometry width="50" height="50" relative="1" as="geometry">
            <mxPoint x="560" y="350" as="sourcePoint" />
            <mxPoint x="560" y="300" as="targetPoint" />
          </mxGeometry>
        </mxCell>
        <mxCell id="sVOYZzYlMdBRzzVB63qX-88" value="&lt;font face=&quot;helvetica&quot; style=&quot;font-size: 16px&quot;&gt;check&lt;/font&gt;" style="text;whiteSpace=wrap;html=1;fontSize=18;" vertex="1" parent="WIyWlLk6GJQsqaUBKTNV-1">
          <mxGeometry x="42" y="659" width="46" height="37" as="geometry" />
        </mxCell>
        <mxCell id="sVOYZzYlMdBRzzVB63qX-89" value="" style="endArrow=classic;html=1;rounded=0;fontSize=18;" edge="1" parent="WIyWlLk6GJQsqaUBKTNV-1">
          <mxGeometry width="50" height="50" relative="1" as="geometry">
            <mxPoint x="-40" y="390" as="sourcePoint" />
            <mxPoint x="-80" y="420" as="targetPoint" />
          </mxGeometry>
        </mxCell>
        <mxCell id="sVOYZzYlMdBRzzVB63qX-90" value="" style="endArrow=classic;html=1;rounded=0;fontSize=18;" edge="1" parent="WIyWlLk6GJQsqaUBKTNV-1">
          <mxGeometry width="50" height="50" relative="1" as="geometry">
            <mxPoint x="250" y="460" as="sourcePoint" />
            <mxPoint x="340" y="460" as="targetPoint" />
          </mxGeometry>
        </mxCell>
      </root>
    </mxGraphModel>
  </diagram>
</mxfile>
